<svg version="1.1" id="Layer_1" xmlns="http://www.w3.org/2000/svg" xmlns:xlink="http://www.w3.org/1999/xlink" x="0px" y="0px"
	 width="100%" viewBox="0 0 819 641" enable-background="new 0 0 819 641" xml:space="preserve">
<path fill="#F2F2F2" opacity="1.000000" stroke="none" 
	d="
M423.000000,642.000000 
	C282.000000,642.000000 141.500000,642.000000 1.000000,642.000000 
	C1.000000,428.333344 1.000000,214.666672 1.000000,1.000000 
	C274.000000,1.000000 547.000000,1.000000 820.000000,1.000000 
	C820.000000,214.666672 820.000000,428.333344 820.000000,642.000000 
	C687.833313,642.000000 555.666687,642.000000 423.000000,642.000000 
M578.025818,336.085327 
	C578.025818,336.085327 578.084595,336.199646 578.638062,336.049347 
	C578.803772,335.712799 578.969543,335.376282 579.064026,335.064880 
	C579.064026,335.064880 579.116699,335.119354 579.688721,334.591217 
	C580.080811,327.096954 580.472961,319.602692 580.899353,311.453613 
	C587.106873,315.141998 593.052246,318.145081 598.403198,321.978027 
	C606.448242,327.740784 615.466614,321.246063 615.267090,312.486542 
	C614.648926,285.355713 614.933228,258.201416 615.095703,231.057571 
	C615.143433,223.083969 611.997681,217.377914 605.169495,213.437775 
	C598.412537,209.538727 591.742188,205.489517 585.036194,201.502289 
	C570.914246,193.105759 556.844116,184.620346 542.654175,176.340271 
	C533.820679,171.185760 524.206055,175.485077 525.623352,185.908890 
	C526.424194,191.798996 525.842529,197.877075 525.187012,204.006561 
	C520.448364,201.341797 515.709717,198.677048 510.574219,195.601166 
	C510.061188,195.372696 509.548157,195.144211 508.742828,194.468872 
	C508.256622,194.280533 507.770447,194.092178 506.858276,193.326050 
	C503.075958,191.054214 499.221008,189.400757 494.964508,191.936203 
	C494.964508,191.936203 494.964020,191.846191 494.355774,191.947800 
	C493.871857,192.284637 493.387939,192.621490 492.434357,193.088211 
	C492.133148,193.277313 491.976837,193.549591 491.362793,194.324768 
	C490.553436,197.264511 489.277527,200.167175 489.040253,203.152405 
	C488.650665,208.053879 488.934906,213.008911 488.219757,218.041565 
	C483.593262,215.432907 478.978394,212.803284 474.337860,210.219833 
	C463.900696,204.409317 456.067810,208.933212 456.065216,220.762665 
	C456.061157,239.245529 455.987488,257.728912 456.113220,276.210938 
	C456.148773,281.441040 454.097900,285.052277 449.582550,287.594330 
	C444.222931,290.611664 438.964996,293.814056 433.720032,297.029236 
	C429.283875,299.748596 425.153412,299.693695 420.704163,296.767059 
	C413.393463,291.958191 405.617493,288.574707 396.465057,288.868164 
	C387.943817,289.141327 380.620789,292.328369 373.697388,296.770935 
	C369.591095,299.405792 365.797791,299.575073 361.614624,296.964203 
	C356.114105,293.531158 350.492218,290.280457 344.813995,287.148071 
	C340.132080,284.565277 337.949646,280.947784 338.000305,275.464050 
	C338.174072,256.649780 338.094116,237.832779 338.042694,219.016998 
	C338.015503,209.078278 329.961609,204.487350 321.396515,209.437698 
	C316.371979,212.341705 311.338593,215.230438 306.286835,217.169968 
	C306.327301,213.682556 306.687531,210.161438 306.324371,206.716583 
	C305.905060,202.738434 304.848114,198.827499 304.038086,194.971573 
	C304.038086,194.971573 304.119080,194.933884 303.911682,194.363068 
	C303.295868,193.869125 302.680054,193.375198 302.032623,192.962631 
	C302.032623,192.962631 302.114838,192.933304 301.699188,192.356445 
	C295.666321,188.502869 290.704163,191.159561 285.984619,195.000992 
	C285.984619,195.000992 285.961456,194.928986 285.404083,195.043076 
	C285.201965,195.326233 284.999878,195.609390 284.938934,195.844208 
	C284.938934,195.844208 284.864990,195.714584 284.196075,195.789474 
	C283.087158,196.495483 281.978210,197.201492 280.951691,197.938660 
	C280.951691,197.938660 280.964050,197.851410 280.391998,197.994675 
	C279.913208,198.318939 279.434418,198.643204 278.992310,199.004349 
	C278.992310,199.004349 278.968201,198.960419 278.354980,199.093140 
	C277.522339,199.696808 276.689667,200.300476 275.951447,200.936691 
	C275.951447,200.936691 275.964661,200.837677 275.376495,200.965729 
	C274.891357,201.292313 274.406219,201.618896 273.982208,201.993896 
	C273.982208,201.993896 273.964233,201.918045 273.336609,202.078064 
	C273.029968,202.371185 272.723328,202.664307 272.166718,202.830307 
	C272.166718,202.830307 271.965149,203.025299 271.446320,203.121750 
	C271.229309,203.390778 271.012268,203.659805 270.439758,203.895416 
	C270.439758,203.895416 270.086975,203.950211 269.888580,203.039581 
	C269.854553,196.821396 270.065186,190.587570 269.669373,184.392487 
	C269.504822,181.816574 268.046417,179.323288 267.135986,176.883881 
	C267.135986,176.883881 267.235901,176.880539 267.036163,176.353836 
	C266.723358,176.160477 266.410553,175.967133 266.109131,175.882431 
	C266.109131,175.882431 266.206879,175.833633 265.920929,175.299927 
	C265.382111,175.050079 264.843292,174.800232 264.230988,174.569199 
	C264.230988,174.569199 264.223267,174.644638 263.799530,174.073029 
	C261.221405,174.094147 258.643311,174.115280 255.373779,174.211853 
	C232.981689,187.561417 210.612045,200.948883 188.181946,214.234253 
	C182.476974,217.613327 179.922012,222.409164 179.942307,229.004593 
	C180.028976,257.152008 179.966568,285.299866 179.979355,313.447571 
	C179.984085,323.856567 187.233078,328.119995 196.293716,323.056122 
	C202.201691,319.754181 208.083206,316.404968 213.998825,314.002686 
	C214.254807,320.395660 214.266205,326.811218 214.853149,333.173676 
	C215.241379,337.381897 218.400208,338.696136 222.521317,338.450592 
	C230.279053,337.988373 235.707916,333.154999 242.397552,329.146942 
	C242.959137,328.779755 243.520721,328.412567 244.019424,328.008484 
	C244.019424,328.008484 244.028870,328.080780 244.570908,327.956421 
	C244.788605,327.678528 245.006317,327.400635 245.078491,327.158752 
	C245.078491,327.158752 245.146759,327.292236 245.774063,327.162018 
	C246.505310,326.730865 247.236542,326.299744 248.702560,326.350830 
	C249.070267,331.645508 249.111206,336.988800 249.889206,342.222473 
	C250.841888,348.631287 255.880325,351.489655 262.003906,349.509155 
	C263.562805,349.005005 265.031708,348.150055 266.454224,347.308014 
	C281.773438,338.239594 297.202637,329.346771 312.322418,319.956146 
	C318.889679,315.877350 324.683380,315.203003 331.076569,319.982697 
	C334.790253,322.759125 339.016968,324.843109 342.970947,327.305939 
	C348.480652,330.737762 351.967499,335.582550 353.095642,342.050690 
	C355.147125,353.813354 360.195892,364.106598 370.007660,371.068817 
	C378.327606,376.972565 380.575867,384.339233 380.446930,394.179962 
	C380.326294,403.385498 376.888092,409.140076 369.271210,413.617279 
	C351.626831,423.988556 334.408020,435.102661 316.559998,445.100311 
	C308.455994,449.639832 306.989929,462.740265 316.720428,467.007233 
	C322.002686,469.323608 326.771271,472.811310 331.170685,476.094330 
	C327.096649,478.671814 323.022644,481.249268 318.402924,483.999573 
	C318.191071,484.288849 317.979187,484.578094 317.914520,484.815033 
	C317.914520,484.815033 317.830444,484.683411 317.174744,484.803955 
	C316.084167,485.524780 314.993622,486.245605 313.358307,487.130157 
	C312.888336,487.703583 312.418396,488.277008 311.345184,489.273163 
	C308.667603,494.045532 307.401306,498.759949 312.139465,503.752197 
	C312.734009,504.177338 313.328552,504.602448 314.373901,505.536530 
	C315.011017,505.794739 315.648132,506.052948 316.593842,506.864044 
	C321.115265,509.570953 325.636658,512.277893 329.916534,515.647522 
	C325.222900,518.458923 320.484222,521.198242 315.845154,524.096924 
	C306.731110,529.791687 306.640686,539.131836 315.813446,544.639099 
	C339.565216,558.899292 363.428131,572.974304 387.204010,587.194580 
	C393.831940,591.158691 400.422302,591.269104 406.977081,587.367004 
	C431.367004,572.847473 455.743622,558.304871 480.047211,543.641479 
	C486.280823,539.880493 487.539062,532.747986 482.107483,527.906982 
	C476.791443,523.168884 470.260284,519.794067 464.395020,515.177551 
	C469.317505,512.142090 474.222168,509.077148 479.166962,506.078461 
	C485.611877,502.170044 488.396423,490.783569 479.777313,485.932434 
	C474.139008,482.759033 468.750793,479.141357 463.713196,475.296936 
	C469.294495,471.998230 475.159393,469.080109 480.328735,465.228455 
	C482.656830,463.493744 484.489197,460.046173 484.981476,457.113129 
	C486.006042,451.009277 481.713715,447.530579 477.003113,444.674042 
	C458.946198,433.724274 440.813721,422.895325 422.908722,411.702454 
	C419.845947,409.787842 416.066132,406.591492 415.561768,403.505981 
	C414.424896,396.550720 414.149506,389.103943 415.479401,382.235809 
	C416.205566,378.485687 420.623108,375.175537 423.895538,372.247803 
	C431.876068,365.107880 439.359833,357.299164 440.567932,346.390930 
	C441.971069,333.721710 448.931854,326.307526 459.610046,321.168274 
	C460.655701,320.665039 461.682220,320.081055 462.618896,319.398926 
	C469.589355,314.323029 476.250977,314.996277 483.401581,319.515808 
	C498.439972,329.020752 513.769775,338.063934 528.940186,347.361389 
	C532.780701,349.715149 536.701050,351.508881 541.078125,349.197540 
	C545.581909,346.819336 545.851929,342.500824 545.894775,337.978424 
	C545.932739,333.981171 546.577087,329.989655 547.531433,326.376038 
	C552.604187,329.468170 557.491394,332.940674 562.807495,335.533997 
	C567.184509,337.669250 571.687439,341.924896 577.609863,337.071808 
	C577.788513,336.727570 577.967163,336.383331 578.025818,336.085327 
z"/>
<path fill="#FFB95F" opacity="1.000000" stroke="none" 
	d="
M331.771576,475.770660 
	C326.771271,472.811310 322.002686,469.323608 316.720428,467.007233 
	C306.989929,462.740265 308.455994,449.639832 316.559998,445.100311 
	C334.408020,435.102661 351.626831,423.988556 369.271210,413.617279 
	C376.888092,409.140076 380.326294,403.385498 380.446930,394.179962 
	C380.575867,384.339233 378.327606,376.972565 370.007660,371.068817 
	C360.195892,364.106598 355.147125,353.813354 353.095642,342.050690 
	C351.967499,335.582550 348.480652,330.737762 342.970947,327.305939 
	C339.016968,324.843109 334.790253,322.759125 331.076569,319.982697 
	C324.683380,315.203003 318.889679,315.877350 312.322418,319.956146 
	C297.202637,329.346771 281.773438,338.239594 266.454224,347.308014 
	C265.031708,348.150055 263.562805,349.005005 262.003906,349.509155 
	C255.880325,351.489655 250.841888,348.631287 249.889206,342.222473 
	C249.111206,336.988800 249.070267,331.645508 248.363251,325.906189 
	C248.023941,325.461517 248.072571,325.053009 248.068054,325.032379 
	C248.063522,325.011749 248.047333,325.047729 248.365173,324.766693 
	C248.762222,304.680328 248.841431,284.874969 248.947601,264.624939 
	C248.313354,256.270996 251.032974,250.302826 258.569183,246.865250 
	C261.114319,245.704300 263.431732,244.040985 265.843323,242.590790 
	C278.885925,234.747879 291.925446,226.899796 305.165131,218.990997 
	C305.679230,218.661026 305.994232,218.393524 306.309204,218.126038 
	C311.338593,215.230438 316.371979,212.341705 321.396515,209.437698 
	C329.961609,204.487350 338.015503,209.078278 338.042694,219.016998 
	C338.094116,237.832779 338.174072,256.649780 338.000305,275.464050 
	C337.949646,280.947784 340.132080,284.565277 344.813995,287.148071 
	C350.492218,290.280457 356.114105,293.531158 361.614624,296.964203 
	C365.797791,299.575073 369.591095,299.405792 373.697388,296.770935 
	C380.620789,292.328369 387.943817,289.141327 396.465057,288.868164 
	C405.617493,288.574707 413.393463,291.958191 420.704163,296.767059 
	C425.153412,299.693695 429.283875,299.748596 433.720032,297.029236 
	C438.964996,293.814056 444.222931,290.611664 449.582550,287.594330 
	C454.097900,285.052277 456.148773,281.441040 456.113220,276.210938 
	C455.987488,257.728912 456.061157,239.245529 456.065216,220.762665 
	C456.067810,208.933212 463.900696,204.409317 474.337860,210.219833 
	C478.978394,212.803284 483.593262,215.432907 488.699463,218.238251 
	C489.439178,218.686722 489.699249,218.938492 490.142700,219.469147 
	C505.936554,229.170502 521.484009,238.700165 537.200012,247.943176 
	C541.343994,250.380371 544.229065,253.357849 545.178162,258.532837 
	C545.144409,278.765503 545.088257,298.538147 545.226685,318.309479 
	C545.243042,320.648315 546.325256,322.979706 546.925293,325.484711 
	C546.937073,325.654877 546.953796,325.995605 546.953735,325.995605 
	C546.577087,329.989655 545.932739,333.981171 545.894775,337.978424 
	C545.851929,342.500824 545.581909,346.819336 541.078125,349.197540 
	C536.701050,351.508881 532.780701,349.715149 528.940186,347.361389 
	C513.769775,338.063934 498.439972,329.020752 483.401581,319.515808 
	C476.250977,314.996277 469.589355,314.323029 462.618896,319.398926 
	C461.682220,320.081055 460.655701,320.665039 459.610046,321.168274 
	C448.931854,326.307526 441.971069,333.721710 440.567932,346.390930 
	C439.359833,357.299164 431.876068,365.107880 423.895538,372.247803 
	C420.623108,375.175537 416.205566,378.485687 415.479401,382.235809 
	C414.149506,389.103943 414.424896,396.550720 415.561768,403.505981 
	C416.066132,406.591492 419.845947,409.787842 422.908722,411.702454 
	C440.813721,422.895325 458.946198,433.724274 477.003113,444.674042 
	C481.713715,447.530579 486.006042,451.009277 484.981476,457.113129 
	C484.489197,460.046173 482.656830,463.493744 480.328735,465.228455 
	C475.159393,469.080109 469.294495,471.998230 463.155090,475.679138 
	C443.594391,487.282715 424.674438,498.647827 405.542297,509.643829 
	C399.230621,513.271423 392.740326,511.714325 386.679749,508.136749 
	C368.383789,497.336578 350.075226,486.557800 331.771576,475.770660 
z"/>
<path fill="#F6862B" opacity="1.000000" stroke="none" 
	d="
M331.471130,475.932495 
	C350.075226,486.557800 368.383789,497.336578 386.679749,508.136749 
	C392.740326,511.714325 399.230621,513.271423 405.542297,509.643829 
	C424.674438,498.647827 443.594391,487.282715 462.923767,475.892029 
	C468.750793,479.141357 474.139008,482.759033 479.777313,485.932434 
	C488.396423,490.783569 485.611877,502.170044 479.166962,506.078461 
	C474.222168,509.077148 469.317505,512.142090 463.937744,515.531555 
	C460.118195,517.619751 456.672119,519.210327 453.407715,521.112488 
	C437.220642,530.544617 421.066467,540.033508 404.933929,549.558594 
	C399.510803,552.760620 394.176361,552.361511 388.893036,549.418396 
	C383.389099,546.352356 377.937286,543.190308 372.507080,539.994812 
	C358.377747,531.680298 344.272736,523.324280 330.158051,514.984802 
	C325.636658,512.277893 321.115265,509.570953 316.216187,506.305908 
	C315.200073,505.507721 314.561584,505.267639 313.923096,505.027557 
	C313.328552,504.602448 312.734009,504.177338 312.048889,503.064026 
	C311.955017,497.867371 311.951721,493.358887 311.948425,488.850403 
	C312.418396,488.277008 312.888336,487.703583 313.997314,487.053894 
	C315.701050,486.212891 316.765747,485.448120 317.830444,484.683411 
	C317.830444,484.683411 317.914520,484.815033 318.111938,484.764099 
	C318.522430,484.417664 318.735535,484.122223 318.948608,483.826752 
	C323.022644,481.249268 327.096649,478.671814 331.471130,475.932495 
z"/>
<path fill="#EF6418" opacity="1.000000" stroke="none" 
	d="
M330.037292,515.316162 
	C344.272736,523.324280 358.377747,531.680298 372.507080,539.994812 
	C377.937286,543.190308 383.389099,546.352356 388.893036,549.418396 
	C394.176361,552.361511 399.510803,552.760620 404.933929,549.558594 
	C421.066467,540.033508 437.220642,530.544617 453.407715,521.112488 
	C456.672119,519.210327 460.118195,517.619751 463.871460,515.853210 
	C470.260284,519.794067 476.791443,523.168884 482.107483,527.906982 
	C487.539062,532.747986 486.280823,539.880493 480.047211,543.641479 
	C455.743622,558.304871 431.367004,572.847473 406.977081,587.367004 
	C400.422302,591.269104 393.831940,591.158691 387.204010,587.194580 
	C363.428131,572.974304 339.565216,558.899292 315.813446,544.639099 
	C306.640686,539.131836 306.731110,529.791687 315.845154,524.096924 
	C320.484222,521.198242 325.222900,518.458923 330.037292,515.316162 
z"/>
<path fill="#EF6418" opacity="1.000000" stroke="none" 
	d="
M525.883606,203.870453 
	C525.842529,197.877075 526.424194,191.798996 525.623352,185.908890 
	C524.206055,175.485077 533.820679,171.185760 542.654175,176.340271 
	C556.844116,184.620346 570.914246,193.105759 585.036194,201.502289 
	C591.742188,205.489517 598.412537,209.538727 605.169495,213.437775 
	C611.997681,217.377914 615.143433,223.083969 615.095703,231.057571 
	C614.933228,258.201416 614.648926,285.355713 615.267090,312.486542 
	C615.466614,321.246063 606.448242,327.740784 598.403198,321.978027 
	C593.052246,318.145081 587.106873,315.141998 580.899353,311.453613 
	C580.472961,319.602692 580.080811,327.096954 579.368103,334.378845 
	C579.370239,325.566376 579.916992,316.967743 579.971375,308.365997 
	C580.103760,287.421570 580.126099,266.474579 579.922424,245.531250 
	C579.870117,240.146759 577.281189,235.633591 572.485535,232.775620 
	C561.376831,226.155319 550.170776,219.696518 539.122559,212.977524 
	C534.553345,210.198730 530.287476,206.921173 525.883606,203.870453 
z"/>
<path fill="#F17F19" opacity="1.000000" stroke="none" 
	d="
M213.976578,313.076935 
	C208.083206,316.404968 202.201691,319.754181 196.293716,323.056122 
	C187.233078,328.119995 179.984085,323.856567 179.979355,313.447571 
	C179.966568,285.299866 180.028976,257.152008 179.942307,229.004593 
	C179.922012,222.409164 182.476974,217.613327 188.181946,214.234253 
	C210.612045,200.948883 232.981689,187.561417 256.019012,174.433304 
	C259.183929,174.651382 261.703583,174.648010 264.223267,174.644638 
	C264.223267,174.644638 264.230988,174.569199 264.315247,174.899582 
	C265.001953,175.431183 265.604431,175.632401 266.206879,175.833633 
	C266.206879,175.833633 266.109131,175.882431 266.197815,176.097656 
	C266.602966,176.502090 266.919434,176.691315 267.235901,176.880539 
	C267.235901,176.880539 267.135986,176.883881 267.109009,177.276230 
	C267.395721,186.452255 267.709442,195.235916 267.958435,204.360657 
	C267.608643,205.096619 267.409973,205.635910 267.026093,205.865494 
	C252.827454,214.357254 238.813522,223.188644 224.314514,231.134537 
	C216.881699,235.207962 213.991638,240.888123 213.994644,248.807068 
	C214.002762,270.230347 213.984421,291.653656 213.976578,313.076935 
z"/>
<path fill="#F6862B" opacity="1.000000" stroke="none" 
	d="
M213.987701,313.539795 
	C213.984421,291.653656 214.002762,270.230347 213.994644,248.807068 
	C213.991638,240.888123 216.881699,235.207962 224.314514,231.134537 
	C238.813522,223.188644 252.827454,214.357254 267.026093,205.865494 
	C267.409973,205.635910 267.608643,205.096619 268.302307,204.346466 
	C269.169617,203.977539 269.628296,203.963867 270.086975,203.950211 
	C270.086975,203.950211 270.439758,203.895416 270.861267,203.829956 
	C271.510223,203.518097 271.737671,203.271698 271.965149,203.025299 
	C271.965149,203.025299 272.166718,202.830307 272.605469,202.804810 
	C273.350861,202.492218 273.657532,202.205124 273.964233,201.918030 
	C273.964233,201.918045 273.982208,201.993896 274.266724,201.946503 
	C275.022339,201.545288 275.493500,201.191483 275.964661,200.837677 
	C275.964661,200.837677 275.951447,200.936691 276.270569,200.945068 
	C277.382507,200.289093 278.175354,199.624756 278.968201,198.960419 
	C278.968201,198.960419 278.992310,199.004349 279.281677,198.949966 
	C280.035400,198.547531 280.499725,198.199463 280.964050,197.851410 
	C280.964050,197.851410 280.951691,197.938660 281.279053,197.950562 
	C282.692596,197.213165 283.778778,196.463882 284.864990,195.714584 
	C284.864990,195.714584 284.938934,195.844208 285.126343,195.794128 
	C285.529663,195.472366 285.745575,195.200668 285.961456,194.928986 
	C285.961456,194.928986 285.984619,195.000992 286.345337,194.975189 
	C291.681702,193.049744 296.623474,190.891205 302.114838,192.933304 
	C302.114838,192.933304 302.032623,192.962631 302.064514,193.261780 
	C302.770630,194.018585 303.444855,194.476242 304.119080,194.933884 
	C304.119080,194.933884 304.038086,194.971573 304.032349,195.366486 
	C304.339752,203.525421 304.652893,211.289444 304.966003,219.053482 
	C291.925446,226.899796 278.885925,234.747879 265.843323,242.590790 
	C263.431732,244.040985 261.114319,245.704300 258.569183,246.865250 
	C251.032974,250.302826 248.313354,256.270996 248.673492,264.925140 
	C248.264038,285.462585 248.155685,305.255157 248.047333,325.047729 
	C248.047333,325.047729 248.063522,325.011749 247.725830,325.039612 
	C246.641022,325.809082 245.893890,326.550659 245.146759,327.292236 
	C245.146759,327.292236 245.078491,327.158752 244.886871,327.208832 
	C244.473129,327.532867 244.250992,327.806824 244.028870,328.080780 
	C244.028870,328.080780 244.019424,328.008484 243.699982,328.055664 
	C242.827240,328.508606 242.273941,328.914398 241.720642,329.320190 
	C235.707916,333.154999 230.279053,337.988373 222.521317,338.450592 
	C218.400208,338.696136 215.241379,337.381897 214.853149,333.173676 
	C214.266205,326.811218 214.254807,320.395660 213.987701,313.539795 
z"/>
<path fill="#F7872B" opacity="1.000000" stroke="none" 
	d="
M525.535278,203.938507 
	C530.287476,206.921173 534.553345,210.198730 539.122559,212.977524 
	C550.170776,219.696518 561.376831,226.155319 572.485535,232.775620 
	C577.281189,235.633591 579.870117,240.146759 579.922424,245.531250 
	C580.126099,266.474579 580.103760,287.421570 579.971375,308.365997 
	C579.916992,316.967743 579.370239,325.566376 579.082092,334.642883 
	C579.116699,335.119354 579.064026,335.064880 578.844482,335.161072 
	C578.444763,335.571411 578.264648,335.885529 578.084595,336.199646 
	C578.084595,336.199646 578.025818,336.085327 577.822510,336.206604 
	C577.441040,336.680664 577.262817,337.033478 577.084595,337.386292 
	C571.687439,341.924896 567.184509,337.669250 562.807495,335.533997 
	C557.491394,332.940674 552.604187,329.468170 547.242615,326.185822 
	C546.953796,325.995605 546.937073,325.654877 546.953979,324.984161 
	C546.980408,303.741089 547.027405,283.168579 546.922424,262.596802 
	C546.914734,261.085815 545.809265,259.580414 545.214172,258.072418 
	C544.229065,253.357849 541.343994,250.380371 537.200012,247.943176 
	C521.484009,238.700165 505.936554,229.170502 490.158936,218.981934 
	C490.649658,210.112228 491.307556,202.008636 491.965454,193.905060 
	C491.976837,193.549591 492.133148,193.277313 492.986420,193.006226 
	C494.013641,192.564896 494.488831,192.205536 494.964020,191.846191 
	C494.964020,191.846191 494.964508,191.936203 495.362671,191.949310 
	C499.601959,192.609558 503.443115,193.256699 507.284241,193.903839 
	C507.770447,194.092178 508.256622,194.280533 508.897827,194.985565 
	C509.692230,195.672287 510.331665,195.842285 510.971069,196.012299 
	C515.709717,198.677048 520.448364,201.341797 525.535278,203.938507 
z"/>
<path fill="#EF6418" opacity="1.000000" stroke="none" 
	d="
M269.987793,203.494904 
	C269.628296,203.963867 269.169617,203.977539 268.367065,204.005402 
	C267.709442,195.235916 267.395721,186.452255 267.129181,177.230499 
	C268.046417,179.323288 269.504822,181.816574 269.669373,184.392487 
	C270.065186,190.587570 269.854553,196.821396 269.987793,203.494904 
z"/>
<path fill="#EF6418" opacity="1.000000" stroke="none" 
	d="
M305.165131,218.990997 
	C304.652893,211.289444 304.339752,203.525421 304.047302,195.324402 
	C304.848114,198.827499 305.905060,202.738434 306.324371,206.716583 
	C306.687531,210.161438 306.327301,213.682556 306.298035,217.648010 
	C305.994232,218.393524 305.679230,218.661026 305.165131,218.990997 
z"/>
<path fill="#EF6418" opacity="1.000000" stroke="none" 
	d="
M491.664124,194.114914 
	C491.307556,202.008636 490.649658,210.112228 489.975525,218.703033 
	C489.699249,218.938492 489.439178,218.686722 489.057068,218.188156 
	C488.934906,213.008911 488.650665,208.053879 489.040253,203.152405 
	C489.277527,200.167175 490.553436,197.264511 491.664124,194.114914 
z"/>
<path fill="#EF6418" opacity="1.000000" stroke="none" 
	d="
M301.907013,192.644867 
	C296.623474,190.891205 291.681702,193.049744 286.317291,194.949799 
	C290.704163,191.159561 295.666321,188.502869 301.907013,192.644867 
z"/>
<path fill="#F17F19" opacity="1.000000" stroke="none" 
	d="
M311.646790,489.061768 
	C311.951721,493.358887 311.955017,497.867371 311.938446,502.806396 
	C307.401306,498.759949 308.667603,494.045532 311.646790,489.061768 
z"/>
<path fill="#EF6418" opacity="1.000000" stroke="none" 
	d="
M507.071259,193.614944 
	C503.443115,193.256699 499.601959,192.609558 495.318481,191.940628 
	C499.221008,189.400757 503.075958,191.054214 507.071259,193.614944 
z"/>
<path fill="#EF6418" opacity="1.000000" stroke="none" 
	d="
M264.011414,174.358826 
	C261.703583,174.648010 259.183929,174.651382 256.364716,174.395569 
	C258.643311,174.115280 261.221405,174.094147 264.011414,174.358826 
z"/>
<path fill="#F17F19" opacity="1.000000" stroke="none" 
	d="
M317.502563,484.743652 
	C316.765747,485.448120 315.701050,486.212891 314.269714,486.972015 
	C314.993622,486.245605 316.084167,485.524780 317.502563,484.743652 
z"/>
<path fill="#EF6418" opacity="1.000000" stroke="none" 
	d="
M284.530518,195.752029 
	C283.778778,196.463882 282.692596,197.213165 281.237823,197.934982 
	C281.978210,197.201492 283.087158,196.495483 284.530518,195.752029 
z"/>
<path fill="#EF6418" opacity="1.000000" stroke="none" 
	d="
M278.661591,199.026779 
	C278.175354,199.624756 277.382507,200.289093 276.223358,200.928802 
	C276.689667,200.300476 277.522339,199.696808 278.661591,199.026779 
z"/>
<path fill="#EF6418" opacity="1.000000" stroke="none" 
	d="
M510.772644,195.806732 
	C510.331665,195.842285 509.692230,195.672287 509.043976,195.209000 
	C509.548157,195.144211 510.061188,195.372696 510.772644,195.806732 
z"/>
<path fill="#EF6418" opacity="1.000000" stroke="none" 
	d="
M304.015381,194.648468 
	C303.444855,194.476242 302.770630,194.018585 302.080322,193.221100 
	C302.680054,193.375198 303.295868,193.869125 304.015381,194.648468 
z"/>
<path fill="#F17F19" opacity="1.000000" stroke="none" 
	d="
M245.460419,327.227142 
	C245.893890,326.550659 246.641022,325.809082 247.730347,325.060242 
	C248.072571,325.053009 248.023941,325.461517 247.995865,325.665039 
	C247.236542,326.299744 246.505310,326.730865 245.460419,327.227142 
z"/>
<path fill="#EF6418" opacity="1.000000" stroke="none" 
	d="
M266.063904,175.566772 
	C265.604431,175.632401 265.001953,175.431183 264.351990,174.890167 
	C264.843292,174.800232 265.382111,175.050079 266.063904,175.566772 
z"/>
<path fill="#EF6418" opacity="1.000000" stroke="none" 
	d="
M280.678040,197.923035 
	C280.499725,198.199463 280.035400,198.547531 279.263367,198.931519 
	C279.434418,198.643204 279.913208,198.318939 280.678040,197.923035 
z"/>
<path fill="#F17F19" opacity="1.000000" stroke="none" 
	d="
M314.148499,505.282043 
	C314.561584,505.267639 315.200073,505.507721 316.061920,506.029480 
	C315.648132,506.052948 315.011017,505.794739 314.148499,505.282043 
z"/>
<path fill="#EF6418" opacity="1.000000" stroke="none" 
	d="
M494.659912,191.896988 
	C494.488831,192.205536 494.013641,192.564896 493.221252,192.941284 
	C493.387939,192.621490 493.871857,192.284637 494.659912,191.896988 
z"/>
<path fill="#F17F19" opacity="1.000000" stroke="none" 
	d="
M242.059097,329.233582 
	C242.273941,328.914398 242.827240,328.508606 243.731415,328.074097 
	C243.520721,328.412567 242.959137,328.779755 242.059097,329.233582 
z"/>
<path fill="#EF6418" opacity="1.000000" stroke="none" 
	d="
M275.670593,200.901703 
	C275.493500,201.191483 275.022339,201.545288 274.236145,201.922287 
	C274.406219,201.618896 274.891357,201.292313 275.670593,200.901703 
z"/>
<path fill="#F17F19" opacity="1.000000" stroke="none" 
	d="
M244.299896,328.018616 
	C244.250992,327.806824 244.473129,327.532867 244.959641,327.190826 
	C245.006317,327.400635 244.788605,327.678528 244.299896,328.018616 
z"/>
<path fill="#EF6418" opacity="1.000000" stroke="none" 
	d="
M578.361328,336.124512 
	C578.264648,335.885529 578.444763,335.571411 578.880127,335.148529 
	C578.969543,335.376282 578.803772,335.712799 578.361328,336.124512 
z"/>
<path fill="#EF6418" opacity="1.000000" stroke="none" 
	d="
M577.347229,337.229065 
	C577.262817,337.033478 577.441040,336.680664 577.882507,336.183472 
	C577.967163,336.383331 577.788513,336.727570 577.347229,337.229065 
z"/>
<path fill="#EF6418" opacity="1.000000" stroke="none" 
	d="
M285.682770,194.986023 
	C285.745575,195.200668 285.529663,195.472366 285.055786,195.818298 
	C284.999878,195.609390 285.201965,195.326233 285.682770,194.986023 
z"/>
<path fill="#F17F19" opacity="1.000000" stroke="none" 
	d="
M318.675781,483.913147 
	C318.735535,484.122223 318.522430,484.417664 318.038330,484.790222 
	C317.979187,484.578094 318.191071,484.288849 318.675781,483.913147 
z"/>
<path fill="#EF6418" opacity="1.000000" stroke="none" 
	d="
M271.705750,203.073517 
	C271.737671,203.271698 271.510223,203.518097 271.039001,203.846680 
	C271.012268,203.659805 271.229309,203.390778 271.705750,203.073517 
z"/>
<path fill="#EF6418" opacity="1.000000" stroke="none" 
	d="
M267.136047,176.617188 
	C266.919434,176.691315 266.602966,176.502090 266.192139,176.043335 
	C266.410553,175.967133 266.723358,176.160477 267.136047,176.617188 
z"/>
<path fill="#EF6418" opacity="1.000000" stroke="none" 
	d="
M273.650421,201.998047 
	C273.657532,202.205124 273.350861,202.492218 272.730438,202.868362 
	C272.723328,202.664307 273.029968,202.371185 273.650421,201.998047 
z"/>
<path fill="#F17F19" opacity="1.000000" stroke="none" 
	d="
M545.178162,258.532837 
	C545.809265,259.580414 546.914734,261.085815 546.922424,262.596802 
	C547.027405,283.168579 546.980408,303.741089 546.942139,324.813995 
	C546.325256,322.979706 545.243042,320.648315 545.226685,318.309479 
	C545.088257,298.538147 545.144409,278.765503 545.178162,258.532837 
z"/>
<path fill="#F17F19" opacity="1.000000" stroke="none" 
	d="
M248.365173,324.766693 
	C248.155685,305.255157 248.264038,285.462585 248.646515,265.369812 
	C248.841431,284.874969 248.762222,304.680328 248.365173,324.766693 
z"/>
</svg>